<?xml version="1.0" standalone="no"?>
<!DOCTYPE svg PUBLIC "-//W3C//DTD SVG 20010904//EN"
 "http://www.w3.org/TR/2001/REC-SVG-20010904/DTD/svg10.dtd">
<svg version="1.0" xmlns="http://www.w3.org/2000/svg"
 width="2134.000000pt" height="2134.000000pt" viewBox="0 0 2134.000000 2134.000000"
 preserveAspectRatio="xMidYMid meet">
<metadata>
Created by potrace 1.14, written by Peter Selinger 2001-2017
</metadata>
<g transform="translate(0.000000,2134.000000) scale(0.100000,-0.100000)"
fill="#000000" stroke="none">
<path d="M7278 20055 c-2 -2 -57 -6 -122 -9 -66 -4 -122 -9 -125 -11 -4 -1
-37 -6 -75 -9 -37 -4 -91 -11 -120 -17 -50 -9 -81 -15 -141 -25 -238 -40 -643
-163 -875 -266 -80 -36 -285 -139 -300 -152 -8 -7 -26 -17 -40 -24 -30 -14
-39 -20 -155 -97 -241 -160 -428 -328 -639 -575 -19 -23 -74 -94 -146 -190
-86 -115 -262 -431 -337 -605 -75 -173 -173 -485 -209 -660 -19 -92 -35 -188
-40 -230 -4 -27 -8 -52 -10 -56 -1 -3 -6 -39 -9 -80 -4 -40 -8 -80 -10 -87
-25 -75 -25 -796 -1 -927 2 -11 7 -47 10 -80 4 -33 10 -76 13 -95 3 -19 6 -44
8 -55 9 -73 52 -280 85 -413 75 -305 198 -646 351 -978 119 -258 328 -642 370
-680 21 -18 53 -19 1383 -19 748 -1 1372 3 1386 7 31 10 39 23 80 124 17 43
36 88 41 99 4 11 25 61 45 110 92 228 126 297 167 342 102 111 288 87 361 -46
21 -39 58 -170 91 -321 2 -8 13 -58 25 -110 12 -52 23 -104 26 -114 15 -76 38
-162 45 -170 10 -11 25 25 33 82 3 24 12 80 21 125 18 101 18 102 55 317 17
96 32 186 35 200 3 14 16 90 30 170 22 136 29 177 39 225 5 27 20 117 21 130
1 6 4 24 8 40 4 17 9 46 12 65 3 19 7 46 10 60 3 14 7 41 10 60 5 30 14 82 31
175 2 11 21 126 44 255 22 129 42 244 44 255 2 11 7 40 11 65 4 25 9 52 10 61
2 9 6 32 9 50 3 19 8 45 10 59 3 14 12 68 21 120 8 52 22 129 30 170 8 41 17
91 19 110 2 19 16 98 30 175 14 77 30 169 36 205 5 36 12 76 15 90 10 55 36
207 41 240 20 133 80 216 176 245 72 21 106 19 166 -11 81 -40 129 -120 147
-249 4 -22 8 -51 10 -65 3 -14 9 -59 15 -100 6 -41 12 -86 15 -100 4 -25 35
-238 40 -275 8 -59 16 -113 20 -135 6 -33 13 -75 20 -130 3 -25 17 -117 30
-205 24 -157 42 -280 50 -340 4 -30 14 -92 40 -260 8 -49 17 -110 20 -135 3
-25 8 -56 10 -70 3 -14 7 -47 10 -75 3 -27 8 -57 10 -65 2 -8 7 -35 10 -60 3
-25 8 -56 10 -70 2 -14 16 -104 30 -200 14 -96 28 -186 30 -200 2 -14 6 -43
10 -65 10 -68 16 -108 21 -150 2 -22 6 -49 9 -61 4 -19 10 -58 30 -199 5 -38
21 -145 31 -210 10 -65 24 -156 29 -195 5 -36 17 -111 21 -135 2 -11 6 -40 9
-65 3 -25 10 -72 15 -105 5 -33 12 -78 15 -100 4 -22 8 -51 10 -65 3 -14 9
-59 15 -100 6 -41 12 -86 15 -100 2 -14 11 -74 20 -135 9 -60 18 -121 20 -135
2 -14 6 -45 10 -70 3 -25 8 -57 11 -72 3 -15 7 -41 9 -58 5 -41 13 -94 31
-215 8 -55 17 -113 19 -130 2 -16 18 -117 35 -222 16 -106 32 -209 35 -230 3
-21 7 -47 9 -58 3 -11 5 -23 5 -27 1 -5 5 -8 10 -8 5 0 14 37 20 83 7 45 16
105 21 132 5 28 12 68 15 90 3 22 7 51 10 65 2 14 6 41 9 60 3 19 12 85 21
145 9 61 19 128 21 149 3 22 7 43 9 46 2 4 7 29 10 56 4 27 15 103 25 169 28
179 59 375 65 420 10 66 15 97 25 155 5 30 12 75 15 100 3 25 7 56 10 70 5 28
11 64 20 125 3 23 7 50 9 60 2 11 7 43 10 70 4 28 11 75 16 105 5 30 12 73 15
95 4 22 8 51 10 65 3 14 7 43 10 65 3 22 8 51 10 65 3 14 7 43 11 65 6 45 33
216 39 255 2 14 7 43 10 65 4 22 10 67 15 100 5 33 12 78 15 100 4 22 8 51 10
65 3 14 7 43 10 65 13 85 27 132 51 172 92 158 323 147 403 -20 17 -35 140
-427 262 -832 17 -55 34 -111 39 -125 5 -14 34 -106 64 -205 108 -356 137
-451 150 -490 8 -22 20 -61 27 -87 9 -34 17 -45 26 -39 11 6 172 326 307 610
50 106 109 161 198 186 56 16 108 18 443 17 3242 -3 3894 -2 3916 6 13 6 34
20 46 33 17 20 223 428 223 444 0 2 11 28 24 57 64 141 167 421 234 638 46
147 120 475 137 600 3 25 8 56 10 70 7 42 21 153 30 245 24 245 19 639 -10
865 -3 19 -7 55 -10 80 -2 25 -14 95 -25 155 -11 61 -22 124 -25 140 -3 17 -8
37 -10 45 -2 8 -7 30 -10 49 -3 19 -8 37 -10 41 -2 4 -7 20 -10 37 -2 17 -23
94 -45 171 -121 422 -314 800 -576 1125 -102 128 -286 315 -399 407 -44 35
-82 67 -85 70 -3 4 -50 39 -105 78 -262 187 -616 367 -947 481 -96 33 -300 92
-367 106 -9 2 -47 10 -86 19 -38 8 -90 17 -115 21 -25 3 -67 10 -95 15 -208
38 -791 48 -950 15 -11 -2 -42 -6 -70 -9 -105 -12 -179 -25 -400 -72 -11 -2
-29 -6 -40 -8 -11 -2 -40 -10 -65 -17 -25 -7 -51 -14 -58 -15 -67 -13 -316
-99 -452 -156 -457 -192 -883 -505 -1170 -858 -25 -30 -50 -59 -56 -65 -13
-13 -115 -150 -140 -190 -10 -16 -21 -32 -25 -35 -3 -3 -38 -57 -77 -121 -89
-147 -194 -350 -257 -499 -26 -63 -51 -119 -55 -123 -4 -4 -24 34 -45 85 -241
587 -580 1043 -1033 1385 -123 94 -151 113 -325 218 -303 184 -737 359 -1037
419 -14 3 -36 7 -50 10 -29 7 -119 23 -170 31 -19 3 -46 7 -60 10 -30 5 -118
16 -180 21 -52 5 -488 13 -492 9z"/>
<path d="M9221 15443 c-12 -76 -24 -147 -26 -158 -2 -11 -6 -31 -9 -45 -3 -14
-7 -38 -10 -55 -6 -43 -25 -156 -31 -185 -6 -28 -33 -188 -41 -235 -2 -16 -9
-52 -14 -80 -5 -27 -12 -66 -15 -85 -3 -19 -17 -96 -30 -170 -13 -74 -26 -151
-29 -170 -3 -19 -10 -57 -15 -85 -6 -27 -12 -63 -15 -80 -3 -25 -55 -324 -71
-415 -8 -44 -36 -204 -41 -235 -2 -16 -13 -79 -24 -140 -11 -60 -22 -126 -25
-145 -3 -19 -8 -42 -10 -50 -2 -8 -6 -33 -10 -55 -5 -39 -14 -91 -22 -130 -2
-11 -6 -36 -9 -55 -3 -19 -11 -66 -19 -105 -8 -38 -16 -88 -20 -110 -3 -23 -8
-52 -10 -65 -3 -14 -8 -38 -10 -55 -3 -16 -8 -37 -10 -45 -2 -8 -7 -40 -10
-70 -21 -173 -109 -270 -247 -270 -76 0 -144 36 -185 97 -30 46 -51 112 -88
279 -8 38 -26 119 -41 179 -14 61 -27 117 -29 125 -2 8 -26 116 -55 240 -29
124 -54 234 -56 245 -2 11 -9 41 -16 67 l-12 48 -23 -42 c-13 -23 -34 -51 -46
-63 -29 -30 -104 -67 -147 -73 -19 -4 -627 -6 -1352 -6 l-1316 -1 11 -20 c21
-39 265 -367 358 -480 26 -31 255 -298 275 -320 11 -11 39 -43 63 -70 152
-171 261 -285 551 -575 179 -179 352 -350 386 -380 33 -30 100 -91 150 -136
131 -119 203 -183 264 -236 55 -46 83 -70 130 -111 23 -21 283 -234 324 -267
10 -8 33 -27 50 -41 361 -297 1112 -829 1601 -1133 334 -207 772 -464 1000
-586 44 -24 100 -55 125 -69 103 -60 128 -73 185 -101 33 -16 74 -31 91 -33
44 -7 112 20 244 95 63 36 156 87 205 113 113 60 433 241 541 306 79 47 109
58 116 41 2 -4 35 -33 73 -63 225 -177 474 -300 762 -377 189 -51 293 -35 356
54 33 48 46 132 28 187 -23 68 -96 126 -181 141 -120 23 -319 94 -446 161
-105 55 -224 131 -224 144 0 4 62 47 138 97 143 93 488 326 557 376 22 16 72
52 111 81 40 29 82 59 94 67 13 8 35 25 51 38 l28 23 9 -33 c5 -18 65 -229
132 -468 105 -373 139 -494 154 -545 2 -5 6 -23 11 -40 4 -16 45 -163 91 -325
45 -162 122 -434 169 -605 47 -170 106 -380 130 -465 24 -85 76 -272 116 -414
78 -276 97 -318 166 -358 42 -25 110 -32 164 -18 62 17 117 78 277 306 73 104
174 245 223 314 49 69 104 145 121 170 18 25 46 64 64 87 l32 43 518 -518
c547 -546 564 -560 654 -563 85 -2 106 14 465 370 515 509 626 627 641 679 16
56 11 102 -16 155 -14 27 -203 224 -536 557 -282 283 -515 518 -516 522 -3 5
564 415 737 533 97 66 160 129 173 173 42 138 -27 245 -184 290 -157 44 -841
234 -914 253 -82 22 -247 68 -350 98 -36 11 -182 52 -325 91 -143 39 -273 76
-290 81 -56 17 -408 115 -450 124 -5 2 -59 17 -120 35 -60 18 -117 34 -125 36
-61 14 -346 97 -352 102 -3 4 52 57 124 117 123 103 205 175 288 249 19 17 80
72 135 121 55 49 118 106 140 127 22 21 43 38 47 38 9 0 70 -196 92 -294 19
-85 47 -130 98 -162 91 -58 204 -42 273 39 63 73 66 132 15 323 -33 123 -71
231 -120 342 l-33 73 64 63 c230 228 568 601 734 811 22 28 42 52 45 55 36 35
343 446 455 610 43 63 87 127 98 142 44 59 184 55 -1912 57 -2151 1 -1966 8
-2000 -72 -11 -23 -95 -198 -189 -389 -117 -238 -177 -351 -193 -361 -13 -7
-58 -34 -99 -58 -95 -56 -246 -168 -331 -247 l-67 -62 -26 39 c-29 42 -46 86
-100 261 -164 534 -329 1078 -332 1094 -2 10 -6 21 -8 24 -9 9 -37 -8 -35 -20
2 -7 -1 -38 -6 -68 -4 -30 -9 -62 -10 -70 -2 -19 -18 -123 -20 -130 -1 -3 -5
-32 -9 -65 -5 -33 -10 -69 -12 -80 -3 -11 -7 -36 -10 -55 -2 -19 -7 -46 -9
-60 -2 -14 -7 -45 -10 -70 -3 -25 -12 -83 -20 -130 -7 -47 -16 -103 -19 -125
-3 -22 -8 -51 -10 -65 -5 -31 -26 -166 -31 -200 -4 -31 -16 -110 -20 -130 -2
-9 -7 -43 -11 -75 -4 -33 -9 -62 -9 -65 -1 -3 -5 -27 -9 -55 -4 -27 -11 -72
-16 -100 -5 -27 -12 -70 -15 -95 -3 -25 -10 -72 -15 -105 -5 -33 -12 -78 -15
-100 -4 -22 -17 -107 -30 -190 -13 -82 -27 -170 -30 -195 -3 -25 -10 -70 -15
-100 -13 -78 -19 -115 -30 -197 -6 -39 -13 -82 -15 -95 -3 -13 -7 -39 -10 -58
-2 -20 -12 -81 -20 -135 -9 -55 -18 -113 -20 -130 -2 -16 -7 -46 -10 -65 -3
-19 -7 -49 -10 -67 -2 -18 -6 -40 -9 -50 -2 -10 -7 -40 -11 -68 -3 -27 -8 -57
-10 -65 -2 -8 -6 -35 -9 -60 -6 -44 -10 -70 -22 -140 -3 -19 -8 -48 -10 -63
-15 -123 -31 -200 -47 -239 -36 -85 -115 -139 -208 -143 -140 -6 -230 95 -253
285 -3 25 -7 56 -10 70 -3 14 -10 61 -16 105 -6 44 -14 94 -16 110 -3 17 -7
44 -10 60 -10 81 -35 253 -38 275 -5 27 -6 36 -31 205 -9 61 -18 121 -20 135
-3 14 -7 45 -10 70 -3 25 -8 56 -10 70 -3 14 -7 43 -11 65 -3 22 -7 51 -9 65
-2 14 -7 48 -11 75 -7 54 -11 76 -19 115 -3 14 -7 45 -10 70 -2 25 -6 54 -9
65 -2 11 -7 43 -10 70 -7 49 -23 156 -31 206 -5 30 -13 85 -20 149 -3 25 -8
52 -10 60 -2 8 -7 35 -10 60 -3 25 -8 56 -10 70 -2 14 -6 39 -9 55 -7 42 -36
243 -41 283 -2 18 -6 45 -9 60 -3 15 -8 45 -11 67 -3 23 -7 50 -9 60 -3 20
-15 95 -21 145 -6 38 -24 160 -30 200 -17 112 -37 248 -51 340 -8 58 -17 116
-19 130 -2 14 -7 41 -9 60 -24 165 -36 248 -40 265 -2 11 -7 45 -11 75 -4 30
-8 62 -10 70 -1 8 -6 37 -9 63 -4 27 -9 57 -11 66 -2 10 -6 42 -10 72 -3 30
-8 61 -10 69 -2 8 -7 35 -10 60 -3 25 -8 56 -10 70 -2 14 -13 88 -25 165 -11
77 -22 150 -24 161 -2 12 -7 45 -11 74 -4 29 -9 62 -11 74 -2 11 -6 38 -9 61
-3 22 -12 81 -20 130 -20 128 -44 295 -47 330 -2 28 -23 65 -38 65 -3 0 -16
-62 -29 -137z m4458 -4963 c58 -17 124 -35 146 -41 22 -7 54 -16 70 -20 79
-23 252 -71 265 -74 8 -2 71 -20 140 -40 69 -21 141 -41 160 -45 19 -4 116
-31 215 -59 99 -29 214 -61 255 -72 41 -11 146 -41 234 -66 87 -25 164 -46
170 -47 6 -1 36 -10 66 -19 30 -9 136 -38 235 -66 99 -27 254 -71 345 -96 91
-26 172 -48 180 -50 8 -2 47 -13 85 -24 39 -10 89 -24 113 -31 l43 -11 -84
-62 c-46 -34 -109 -79 -138 -100 -30 -21 -117 -84 -194 -139 -77 -55 -162
-115 -190 -134 -64 -43 -127 -101 -149 -137 -9 -15 -20 -50 -23 -77 -11 -94
-8 -97 568 -675 291 -292 529 -533 529 -536 0 -3 -134 -142 -298 -307 l-298
-301 -529 530 c-550 551 -581 579 -660 579 -80 0 -150 -48 -221 -150 -73 -105
-417 -587 -431 -603 -9 -9 -18 -16 -20 -14 -2 2 -19 60 -38 128 -19 68 -39
138 -45 154 -9 28 -56 201 -65 235 -2 8 -44 161 -95 340 -50 179 -97 348 -105
375 -7 28 -28 100 -45 160 -17 61 -53 191 -81 290 -27 99 -56 203 -64 230 -35
120 -166 591 -172 615 -2 8 -23 83 -47 165 l-44 150 42 37 c22 21 47 38 55 38
7 0 61 -14 120 -30z"/>
<path d="M3686 5260 c-1 -3 -2 -203 -2 -445 l1 -440 98 0 c59 0 96 -4 96 -10
-1 -5 -14 -29 -30 -52 -28 -40 -31 -42 -82 -42 -28 1 -59 0 -67 0 -13 -1 -15
-122 -14 -1043 1 -574 2 -1046 3 -1050 0 -5 250 -8 554 -8 l553 0 -1 704 c0
387 2 702 5 700 4 -4 42 -169 99 -424 10 -47 37 -168 61 -270 23 -102 43 -194
46 -205 3 -16 90 -402 109 -482 l5 -23 335 0 c309 0 334 1 339 18 5 18 175
774 207 922 73 335 106 472 110 450 2 -14 4 -332 4 -708 l-1 -682 555 2 556 3
0 1542 c0 849 -2 1544 -5 1544 -22 6 -1323 3 -1326 -3 -2 -4 -101 -395 -220
-870 -119 -475 -217 -864 -219 -866 -1 -1 -44 165 -95 370 -51 205 -94 375
-96 377 -2 2 -59 3 -128 3 l-124 -1 -41 49 c-22 27 -41 50 -41 52 0 2 66 3
148 2 81 0 150 1 153 3 4 1 -43 202 -105 445 l-111 443 -663 0 c-365 0 -665
-2 -666 -5z m564 -900 c0 -8 -5 -31 -10 -51 -16 -56 -48 -57 -97 -5 -72 75
-73 72 22 72 69 -1 85 -4 85 -16z m293 9 c3 -2 8 -25 11 -51 l7 -48 -41 0
c-44 0 -45 2 -54 66 l-6 40 40 -1 c22 -1 41 -3 43 -6z m259 2 c3 -1 -2 -22
-11 -48 -17 -49 -41 -64 -87 -55 l-22 4 19 51 c11 29 19 52 19 53 0 1 72 -3
82 -5z"/>
<path d="M8146 5243 c-75 -259 -239 -842 -240 -853 -1 -13 112 -15 912 -15
501 0 912 1 912 3 0 1 -50 177 -110 390 -61 213 -118 411 -126 440 l-15 52
-664 0 c-623 0 -664 -1 -669 -17z"/>
<path d="M10125 5248 c-4 -15 -53 -214 -60 -243 -2 -11 -15 -65 -30 -120 -14
-55 -28 -112 -30 -127 -3 -15 -9 -38 -15 -52 -5 -15 -7 -26 -4 -26 2 0 0 -8
-5 -17 -5 -10 -11 -31 -14 -48 -3 -16 -17 -75 -31 -130 -14 -55 -26 -102 -26
-105 0 -3 446 -5 991 -5 1088 0 1000 -5 1013 60 3 17 17 75 31 130 14 55 27
109 30 120 7 34 135 539 141 558 5 16 -47 17 -991 17 -788 0 -996 -3 -1000
-12z"/>
<path d="M12760 5245 c-249 -40 -428 -150 -535 -328 -19 -32 -35 -60 -35 -61
0 -2 -8 -21 -17 -42 -9 -22 -17 -41 -18 -44 -1 -3 -7 -25 -14 -50 -22 -76 -39
-198 -37 -273 l1 -72 760 -1 c418 -1 765 -2 770 -3 7 -1 10 -76 10 -212 0
-115 2 -214 5 -217 3 -4 251 -8 553 -7 l547 0 0 275 c-1 236 -5 323 -24 435
-15 93 -72 233 -126 309 -110 158 -298 262 -530 295 -107 15 -1209 12 -1310
-4z"/>
<path d="M15000 4818 l0 -443 553 0 552 0 0 440 0 440 -552 3 -553 2 0 -442z"/>
<path d="M16545 4714 c0 -300 -4 -548 -8 -551 -7 -4 -340 -7 -413 -4 -17 1
-20 7 -19 44 1 23 0 47 -2 54 -3 8 -148 11 -554 11 l-549 0 0 -1049 0 -1049
553 0 552 0 0 550 c0 484 2 550 15 551 19 0 378 0 405 0 20 -1 20 -7 20 -551
l0 -550 552 0 553 0 0 1545 0 1545 -553 0 -552 0 0 -546z"/>
<path d="M7865 4252 c-8 -19 -366 -1268 -395 -1377 -10 -38 -25 -92 -33 -120
-46 -155 -79 -273 -83 -294 -3 -14 -7 -28 -10 -32 -3 -5 -18 -57 -35 -116 -16
-59 -32 -116 -35 -125 -5 -17 26 -18 550 -18 487 0 556 2 557 15 2 18 3 25 12
50 3 11 8 31 11 45 2 14 9 44 15 68 l12 42 384 0 384 0 9 -34 c6 -18 18 -68
28 -110 l18 -76 553 0 c304 0 553 1 553 3 0 1 -70 247 -156 547 -85 300 -157
552 -159 560 -6 20 -92 326 -105 370 -5 19 -19 67 -30 105 -31 106 -37 125
-94 325 l-52 185 -946 2 c-874 1 -947 0 -953 -15z m1030 -642 c42 -168 78
-312 80 -320 4 -13 -16 -15 -153 -14 -180 2 -175 1 -168 12 3 5 7 19 10 33 2
13 32 134 66 268 34 135 63 249 64 255 8 39 18 77 21 74 2 -2 38 -141 80 -308z"/>
<path d="M10460 3219 l0 -1049 553 2 552 3 1 1046 2 1047 -554 0 -554 0 0
-1049z"/>
<path d="M12101 3592 c1 -714 4 -771 48 -908 27 -83 63 -164 73 -164 5 0 8 -5
8 -11 0 -6 21 -37 46 -69 45 -57 125 -123 204 -167 44 -25 167 -68 220 -77 19
-3 53 -10 75 -14 53 -9 1223 -9 1300 1 186 23 345 98 463 218 95 97 161 241
198 429 3 19 9 177 11 350 l5 315 -549 0 c-301 1 -550 -3 -553 -6 -3 -4 -5
-102 -5 -218 0 -133 -3 -212 -10 -214 -9 -3 -412 -1 -425 2 -3 0 -5 273 -5
605 l0 604 -553 0 -552 0 1 -676z"/>
</g>
</svg>
