<svg id="Layer_1" data-name="Layer 1" xmlns="http://www.w3.org/2000/svg" xmlns:xlink="http://www.w3.org/1999/xlink" viewBox="0 0 512 512"><defs><style>.cls-1{fill:#e62d33;}.cls-2{fill:url(#linear-gradient);}.cls-3{fill:url(#linear-gradient-2);}.cls-4{fill:url(#linear-gradient-3);}.cls-5{font-size:108.56px;fill:#fff;font-family:InfiniteEnergy, Infinite Energy;}.cls-6{letter-spacing:-0.04em;}.cls-10,.cls-7,.cls-8,.cls-9{fill:#23a1dc;}.cls-7{letter-spacing:-0.15em;}.cls-8{letter-spacing:-0.05em;}.cls-9{letter-spacing:0.01em;}.cls-11{fill:#1e68b1;}</style><linearGradient id="linear-gradient" x1="310.16" y1="298.63" x2="413.91" y2="298.63" gradientUnits="userSpaceOnUse"><stop offset="0" stop-color="#59bddc"/><stop offset="1" stop-color="#1e68b1"/></linearGradient><linearGradient id="linear-gradient-2" x1="264.13" y1="251.16" x2="365.19" y2="251.16" xlink:href="#linear-gradient"/><linearGradient id="linear-gradient-3" x1="284.56" y1="249.02" x2="340.31" y2="249.02" xlink:href="#linear-gradient"/></defs><path class="cls-1" d="M284.07,195.32c-2.34-7.61-4.65-15.15-7-22.68-1.91-6.22-3.8-12.44-5.73-18.65-1-3.36-3.2-5-6.17-4.72s-4.69,2.23-5.21,5.55q-5.85,37.91-11.71,75.83l-.33,0c-.61-4-1.24-7.91-1.83-11.88q-4.62-31.06-9.23-62.14-4.17-28.07-8.33-56.13c-.67-4.55-4-7-7.78-5.6a5.82,5.82,0,0,0-3.77,4.9l-4.59,26.53q-5,28.74-10,57.47a1.43,1.43,0,0,1-.64,1.24c-1.13-4.89-2.24-9.74-3.35-14.59-.81-3.54-2.5-5.32-5.27-5.55-3-.26-4.9,1.16-6.31,4.61-1.65,4-3.36,8-5,12a2,2,0,0,1-2.13,1.44q-32-.06-64,0a2,2,0,0,1-2-1c-11.9-20.07-20-41.33-20.09-65-.08-17.37,3.47-34,12.6-48.91,11-18,27.49-28.73,47.57-33.91,25.81-6.66,50.36-3.61,72.81,11.41C239.92,54.41,249.08,66.7,255,81.46c.25.62.49,1.24.74,1.87,0,0,.11.07.34.23.32-.74.62-1.45.92-2.16,11.68-27.92,32.71-44.22,62.31-49.27a88.87,88.87,0,0,1,57.27,9.08C398.25,52.52,410.85,70.62,416,94.29c5.06,23.39,1.72,45.79-7.54,67.55-1.7,4-3.64,7.87-5.57,11.75a3.28,3.28,0,0,1-3.43,2.1c-33.24-.07-66.48,0-99.71-.12-4.09,0-6.6,1.35-8.21,5.1-1.85,4.33-4.05,8.5-6.14,12.72C285.06,194,285,194.82,284.07,195.32Z"/><path class="cls-1" d="M122,194.33h2.64c19.54,0,39.08-.05,58.62,0,3.57,0,6.39-.73,8-4.5q1.19,5.12,2.38,10.23,1.78,7.77,3.57,15.52c.74,3.22,2.85,5.06,5.7,5s5.06-1.9,5.66-5.31q4.23-24,8.38-47.95,2.53-14.58,5.07-29.18c1.15.37.86,1.36,1,2.08q3.32,22,6.57,43.93,4.88,32.75,9.75,65.47c1,6.66,1.95,13.32,2.93,20,.58,3.92,2.78,6.16,6,6.07,2.92-.08,5.11-2.18,5.61-5.41Q256.84,250.15,260,230q3.74-24.28,7.45-48.56c.87-.07.68.65.81,1.08q4.5,14.69,9,29.37c1,3.27,2.81,5,5.51,5.09,2.88.06,4.64-1.55,5.86-4.09,3.87-8.08,7.86-16.12,11.76-24.2A2.39,2.39,0,0,1,302.8,187q45.58.08,91.17,0a3.71,3.71,0,0,1,.54.08c.06,1-.67,1.59-1.13,2.28-12.14,18.15-26.7,34.19-42.77,48.89a422.94,422.94,0,0,1-85.85,61.18c-10.46,5.6-7.16,5.69-17.47.08-42.66-23.24-80.95-52.12-112.85-89A186.74,186.74,0,0,1,122,194.33Z"/><path class="cls-2" d="M389.07,296.9l22.69,22.7c2.85,2.85,2.87,5.53,0,8.37l-20.28,20.26c-3,3-5.71,3-8.73,0q-11.3-11.29-22.58-22.58c-.39-.39-.8-.75-1.25-1.17-.35.46-.61.78-.84,1.11-4.41,6.16-8.84,12.31-13.2,18.5-1.39,2-3.14,3.05-5.55,2.6s-3.5-2.09-4.13-4.33q-7.38-26.46-14.83-52.91-5-17.79-9.93-35.59a7.66,7.66,0,0,1-.26-3c.38-2.53,3.11-4.83,7.13-3.69,20.45,5.84,40.94,11.54,61.43,17.28q13.61,3.81,27.22,7.57c3,.84,4.58,3.14,4.06,6a5.53,5.53,0,0,1-2.59,3.53c-6.51,4.63-13,9.28-19.69,14.06C388.29,296.09,388.67,296.51,389.07,296.9Zm-45.7,32c3.5-4.9,7-9.81,10.49-14.7,2.38-3.33,5.61-3.58,8.53-.66q11.75,11.73,23.46,23.47a14,14,0,0,1,1,1.21l14.59-14.63c-.19-.2-.55-.61-.93-1l-23.46-23.46c-3.12-3.12-2.86-6.26.75-8.84L392.27,280c.41-.29.8-.61,1.42-1.08l-71.36-20c6.68,23.88,13.29,47.49,20,71.33C342.75,329.71,343.08,329.33,343.37,328.92Z"/><path class="cls-3" d="M265,242.77C260,269.6,277.83,296,304.61,301.49c3.3.68,5.77-.52,6.66-3.24a4.89,4.89,0,0,0-3.93-6.4A40.74,40.74,0,0,1,290.09,284a40.25,40.25,0,0,1-15.64-28.15,40.87,40.87,0,0,1,33.11-44.35c21.27-4.2,42.92,10.09,47.39,31.36.11.56.21,1.12.37,1.67a5,5,0,0,0,9.78-2.37,50.92,50.92,0,0,0-41.74-40.65c-2.75-.42-5.55-.58-8.33-.87A51.21,51.21,0,0,0,265,242.77"/><path class="cls-4" d="M315.24,231.32c6.7.18,12.05,2.33,15.87,7.68a4.93,4.93,0,0,0,7.23,1.26,5,5,0,0,0,.82-7.2,29.52,29.52,0,0,0-20.64-11.66,30.35,30.35,0,0,0-33.19,23.75c-2.51,12.18,1.13,22.41,10.77,30.37a5,5,0,0,0,7.45-.68c1.7-2.19,1.18-5.19-1.18-7.14-6.88-5.66-9.2-13-6.93-21.43s8.13-13.22,16.73-14.63C313.29,231.46,314.43,231.4,315.24,231.32Z"/><text class="cls-5" transform="translate(85.82 460.01)"><tspan class="cls-6">M</tspan><tspan class="cls-7" x="85.98" y="0">a</tspan><tspan class="cls-8" x="149.32" y="0">t</tspan><tspan class="cls-9" x="201.85" y="0">c</tspan><tspan class="cls-10" x="271.44" y="0">h</tspan></text><path class="cls-11" d="M120.28,385.8H88.47V407h2.65c1-1.57,2-3.14,2.95-4.72a1.14,1.14,0,0,1,1.94-.11l4,4.6.15.17c.1-.44.19-.84.29-1.23L103,394.43l1.14-5a1,1,0,0,1,1.11-.81,1,1,0,0,1,1,.86l1.38,8.43,1.14,7.08c.09.53.17,1.05.26,1.57h0l1.42,8.73,2.83-8.32h0l.13-.4h0l1.29-3.82a1,1,0,0,1,.84-.72,1.1,1.1,0,0,1,1.09.41l3.94,4.54h5Z"/><path class="cls-11" d="M141.48,385.8l-10.6,42.41-4.61-18.55h-6l-2.65-3-1.23-1.43-.21-.23c-.1.27-.19.51-.27.75l-.29.87h0l-1,3.07h0l-3.45,10.23a1.05,1.05,0,0,1-1.13.72,1,1,0,0,1-1-.86l-1.23-7.55c-.14-.85-.27-1.7-.41-2.54h0L107,407v0l-.28-1.72h0l0-.15c-.43-2.7-.88-5.39-1.32-8.08-.1-.63-.2-1.25-.34-1.88-.07.27-.14.53-.2.8q-1.16,5-2.33,10.06h0l-.94,3.67h0a1,1,0,0,1-.62.37,1.15,1.15,0,0,1-.56,0l-3.77-4.1-1.22-1.41a1.9,1.9,0,0,0-.16-.18l-.16.25c-.3.47-.59.95-.89,1.43h0l-2.35,3.67H88.47V460H115v-35.2l8,35.2h15.9l7.95-35.35V460h26.5V385.8Z"/></svg>