<?xml version="1.0" standalone="no"?>
<!DOCTYPE svg PUBLIC "-//W3C//DTD SVG 20010904//EN"
 "http://www.w3.org/TR/2001/REC-SVG-20010904/DTD/svg10.dtd">
<svg version="1.0" xmlns="http://www.w3.org/2000/svg"
 width="2134.000000pt" height="2134.000000pt" viewBox="0 0 2134.000000 2134.000000"
 preserveAspectRatio="xMidYMid meet">
<metadata>
Created by potrace 1.14, written by Peter Selinger 2001-2017
</metadata>
<g transform="translate(0.000000,2134.000000) scale(0.100000,-0.100000)"
fill="#000000" stroke="none">
<path d="M7220 17324 c-19 -2 -87 -9 -150 -15 -320 -30 -726 -122 -1025 -231
-795 -291 -1378 -804 -1750 -1538 -364 -722 -481 -1619 -329 -2530 54 -323
179 -750 319 -1085 126 -304 408 -850 471 -915 l24 -25 1353 -3 c926 -2 1363
0 1388 8 43 12 39 3 169 320 117 283 139 328 189 373 73 66 183 74 270 19 76
-46 99 -107 181 -467 39 -170 73 -316 75 -324 18 -49 6 -115 471 2566 96 557
181 1028 189 1047 34 81 107 134 200 143 107 11 205 -62 240 -181 9 -28 187
-1205 396 -2616 445 -3004 427 -2886 443 -2869 2 2 115 724 251 1604 179 1158
253 1613 267 1648 65 152 269 185 377 62 18 -21 40 -55 48 -74 14 -32 543
-1746 543 -1758 0 -50 194 312 310 581 42 94 95 158 164 194 l51 27 2182 5
2181 5 28 25 c30 28 200 371 287 580 202 488 320 935 379 1435 20 173 17 734
-5 915 -137 1104 -590 1908 -1378 2443 -488 331 -1093 552 -1694 619 -180 20
-635 17 -810 -6 -575 -73 -1077 -237 -1495 -491 -549 -332 -989 -847 -1281
-1499 -38 -85 -69 -160 -69 -166 0 -6 -5 -10 -12 -8 -7 3 -30 49 -52 104 -54
135 -198 417 -276 542 -250 398 -581 730 -978 981 -470 296 -932 463 -1487
537 -104 14 -578 27 -655 18z"/>
<path d="M9091 11968 c-386 -2225 -411 -2363 -432 -2410 -86 -186 -332 -186
-418 0 -16 36 -271 1106 -271 1140 0 3 -15 -18 -34 -47 -36 -58 -97 -105 -158
-122 -26 -7 -474 -10 -1368 -9 -732 0 -1330 -2 -1330 -5 0 -20 312 -429 465
-610 674 -797 1539 -1608 2437 -2286 724 -547 1396 -978 2350 -1508 264 -146
277 -152 330 -153 49 -1 76 11 233 98 501 276 613 340 719 402 l119 70 76 -61
c227 -181 504 -321 776 -391 193 -50 259 -45 331 28 72 71 83 180 26 260 -35
50 -76 71 -198 101 -200 48 -404 137 -563 243 l-73 50 223 147 c250 165 453
304 643 443 70 51 129 92 131 90 1 -2 13 -39 24 -83 219 -804 858 -3060 877
-3092 60 -104 223 -127 317 -45 9 8 148 198 307 421 160 223 299 417 310 431
l19 25 523 -522 c346 -345 537 -528 565 -542 53 -26 115 -26 173 0 34 15 160
135 508 482 255 254 475 482 490 507 32 54 35 126 7 185 -12 27 -188 211 -542
566 l-524 525 413 295 c227 161 430 309 450 327 49 44 72 106 66 176 -6 73
-43 126 -111 161 -29 14 -279 88 -557 165 -278 76 -869 241 -1315 365 -445
124 -885 247 -978 273 -92 25 -166 49 -165 52 2 4 82 74 178 157 162 139 291
253 482 426 42 37 78 67 81 67 8 0 64 -175 87 -274 26 -112 48 -149 114 -186
152 -88 338 40 311 214 -21 133 -77 312 -147 474 l-41 92 159 163 c319 326
626 681 890 1032 152 201 364 509 364 527 0 17 -92 18 -1936 18 l-1936 0 -26
-29 c-15 -17 -109 -200 -210 -408 l-183 -378 -77 -43 c-103 -57 -233 -151
-347 -250 l-93 -81 -27 39 c-33 48 -49 96 -266 807 -100 331 -179 573 -186
573 -6 0 -14 -12 -17 -27 -3 -16 -132 -851 -286 -1858 -155 -1007 -287 -1850
-295 -1875 -69 -211 -344 -223 -434 -20 -14 32 -44 211 -101 595 -45 303 -209
1407 -365 2455 -156 1048 -303 2033 -325 2190 -46 319 -49 334 -70 338 -13 2
-43 -157 -169 -880z m2007 -4151 l-3 -302 -22 90 c-42 171 -55 268 -60 460 -6
216 9 366 55 550 l27 110 3 -303 c1 -166 1 -438 0 -605z m811 291 l-1 -353
-20 75 c-29 106 -31 392 -5 533 11 53 21 97 23 97 2 0 4 -159 3 -352z m1111
-85 c0 -146 -2 -264 -4 -262 -2 2 -23 72 -45 154 -57 209 -55 282 11 353 12
12 25 22 30 22 4 0 8 -120 8 -267z m706 -283 c82 -23 565 -158 1074 -301 509
-143 1069 -300 1245 -350 176 -49 328 -93 337 -97 14 -5 -61 -63 -318 -247
-185 -132 -354 -257 -375 -278 -70 -70 -84 -145 -43 -234 11 -25 203 -224 548
-571 l531 -532 -303 -303 -302 -302 -537 536 c-583 581 -580 579 -673 566 -93
-12 -111 -31 -387 -419 -207 -290 -259 -357 -265 -342 -4 11 -64 219 -132 464
-139 496 -490 1751 -598 2134 l-69 248 21 15 c12 8 33 26 48 39 15 13 32 22
38 20 6 -2 78 -23 160 -46z"/>
</g>
</svg>
